# xmcd
#
# Track frame offsets: 
#        182
#        8625
#        22395
#        29732
#        40997
#        54782
#        72665
#        85100
#        100000
#        112020
#        126852
#        136722
#        147580
#        160157
#        170770
#        180812
#
# Disc length: 2618 seconds
#
# Revision: 0
# Processed by: cddbd v1.5.1PL0 Copyright (c) Steve Scherf et al.
# Submitted via: ExactAudioCopy v0.95a5
#
DISCID=da0a3810
DTITLE=Pacific - Velka vlakova loupez
DYEAR=1993
DGENRE=Country
TTITLE0=Zlato
TTITLE1=Uz kone mne vitaj
TTITLE2=Zvedava pisen
TTITLE3=Vsiva lod
TTITLE4=Vzdaleny Pacifik
TTITLE5=Morytat o rezniku Peroutkovi
TTITLE6=Listopad
TTITLE7=Mississippi blues (Charlie)
TTITLE8=Oregon (Touha zít)
TTITLE9=Nekdo si piska
TTITLE10=Jim z fregaty
TTITLE11=Klara
TTITLE12=Cinská ctvrt
TTITLE13=Neznama zeme
TTITLE14=Tak sel cas (Kdyz jsi byl malej kluk)
TTITLE15=Velka vlakova loupez
EXTD=Vydavatelství PRESSTON, hity Pacificu 70 let
EXTT0=
EXTT1=
EXTT2=
EXTT3=
EXTT4=
EXTT5=
EXTT6=
EXTT7=
EXTT8=
EXTT9=
EXTT10=
EXTT11=
EXTT12=
EXTT13=
EXTT14=
EXTT15=
PLAYORDER=
